<svg width="24" height="22" viewBox="0 0 24 22" fill="none" xmlns="http://www.w3.org/2000/svg">
<path d="M0.5 2.75C0.5 1.40942 1.37309 0.5 2.25 0.5H21.75C22.6269 0.5 23.5 1.40942 23.5 2.75C23.5 3.4942 23.2126 4.16732 22.7617 4.58183C22.7617 4.58185 22.7617 4.58187 22.7616 4.58189L12.5632 13.9304C12.563 13.9306 12.5628 13.9308 12.5626 13.931C12.2193 14.2434 11.7805 14.2433 11.4372 13.9309C11.4371 13.9307 11.4369 13.9306 11.4368 13.9304L1.23837 4.58189C1.23828 4.58181 1.23819 4.58173 1.23811 4.58165C0.787308 4.16712 0.5 3.49409 0.5 2.75ZM0.5 18.3333V7.55328L9.86214 16.1352C11.122 17.2902 12.878 17.2902 14.1379 16.1352L23.5 7.55329V18.3333C23.5 20.1781 22.2894 21.5 21 21.5H3C1.71059 21.5 0.5 20.1781 0.5 18.3333Z" fill="#C8F5F0" stroke="#C8F5F0"/>
</svg>
