<svg width="41" height="37" viewBox="0 0 41 37" fill="none" xmlns="http://www.w3.org/2000/svg">
<path d="M0.912 16.56C1.95733 16.5173 2.72533 16.2933 3.216 15.888C3.70667 15.4613 3.952 14.864 3.952 14.096C3.952 13.52 3.84533 12.3787 3.632 10.672C3.61067 10.5013 3.54667 9.95733 3.44 9.04C3.33333 8.10133 3.28 7.25867 3.28 6.512C3.28 4.69866 3.83467 3.29066 4.944 2.288C6.05333 1.264 7.536 0.751999 9.392 0.751999H11.696V5.232H10.448C9.76533 5.232 9.27467 5.38133 8.976 5.68C8.67733 5.97867 8.528 6.43733 8.528 7.056C8.528 7.52533 8.61333 8.592 8.784 10.256C8.976 12.3253 9.072 13.68 9.072 14.32C9.072 15.4933 8.784 16.464 8.208 17.232C7.65333 18 6.8 18.4907 5.648 18.704V18.768C6.8 19.0027 7.65333 19.504 8.208 20.272C8.784 21.0187 9.072 21.9893 9.072 23.184C9.072 23.824 8.976 25.1787 8.784 27.248C8.61333 28.8693 8.528 29.9253 8.528 30.416C8.528 31.0347 8.67733 31.4933 8.976 31.792C9.27467 32.112 9.76533 32.272 10.448 32.272H11.696V36.752H9.392C7.536 36.752 6.05333 36.24 4.944 35.216C3.83467 34.2133 3.28 32.7947 3.28 30.96C3.28 30.2133 3.33333 29.3813 3.44 28.464C3.54667 27.5253 3.61067 26.9707 3.632 26.8C3.84533 25.0933 3.952 23.952 3.952 23.376C3.952 22.6507 3.70667 22.0747 3.216 21.648C2.72533 21.2 1.95733 20.9547 0.912 20.912V16.56ZM40.5873 20.912C39.5419 20.9547 38.7739 21.2 38.2833 21.648C37.7926 22.0747 37.5473 22.6507 37.5473 23.376C37.5473 23.952 37.6539 25.0933 37.8673 26.8C37.8886 26.9707 37.9526 27.5253 38.0593 28.464C38.1659 29.3813 38.2193 30.2133 38.2193 30.96C38.2193 32.7947 37.6646 34.2133 36.5553 35.216C35.4459 36.24 33.9633 36.752 32.1073 36.752H29.8033V32.272H31.0513C31.7339 32.272 32.2246 32.112 32.5233 31.792C32.8219 31.4933 32.9713 31.0347 32.9713 30.416C32.9713 29.9253 32.8859 28.8693 32.7153 27.248C32.5233 25.1787 32.4273 23.824 32.4273 23.184C32.4273 21.9893 32.7046 21.0187 33.2593 20.272C33.8353 19.504 34.6993 19.0027 35.8513 18.768V18.704C34.6993 18.4907 33.8353 18 33.2593 17.232C32.7046 16.464 32.4273 15.4933 32.4273 14.32C32.4273 13.68 32.5233 12.3253 32.7153 10.256C32.8859 8.592 32.9713 7.52533 32.9713 7.056C32.9713 6.43733 32.8219 5.97867 32.5233 5.68C32.2246 5.38133 31.7339 5.232 31.0513 5.232H29.8033V0.751999H32.1073C33.9633 0.751999 35.4459 1.264 36.5553 2.288C37.6646 3.29066 38.2193 4.69866 38.2193 6.512C38.2193 7.25867 38.1659 8.10133 38.0593 9.04C37.9526 9.95733 37.8886 10.5013 37.8673 10.672C37.6539 12.3787 37.5473 13.52 37.5473 14.096C37.5473 14.864 37.7926 15.4613 38.2833 15.888C38.7739 16.2933 39.5419 16.5173 40.5873 16.56V20.912Z" fill="#682AE9"/>
</svg>
