<svg width="25" height="25" viewBox="0 0 25 25" fill="none" xmlns="http://www.w3.org/2000/svg">
<path d="M2.55348 6.93291L2.57001 6.90888L2.56258 6.88068C2.30407 5.89887 2.17968 4.86687 2.17968 3.84696C2.17968 2.53009 2.41584 1.86414 2.8892 0.673219C3.99673 0.676762 4.90409 0.81754 5.74455 1.16061C6.59596 1.50814 7.38299 2.06501 8.24162 2.90495L8.26836 2.93111L8.30421 2.92044C9.74775 2.49113 11.2316 2.2981 12.7211 2.2981C14.0654 2.2981 15.4192 2.47859 16.7228 2.87039L16.7588 2.88122L16.7856 2.85487C17.6315 2.02457 18.4121 1.48024 19.2572 1.14282C20.0914 0.809712 20.9926 0.676587 22.0881 0.673215C22.5661 1.8639 22.7975 2.52991 22.7975 3.84696C22.7975 4.86661 22.6682 5.87988 22.4146 6.84318L22.4072 6.87116L22.4235 6.89509C23.7894 8.90663 24.3625 11.3868 24.3625 13.9967C24.3625 15.9881 24.2024 18.0908 23.492 19.9106C22.5534 22.2816 20.7959 23.4392 18.8043 24.0055C16.8968 24.5479 14.7792 24.5465 12.9649 24.5454C12.8813 24.5453 12.7983 24.5453 12.7161 24.5453C12.5947 24.5453 12.4716 24.5454 12.3469 24.5456C10.5227 24.5481 8.36654 24.5511 6.41006 24.0263C4.32337 23.4667 2.47049 22.3084 1.49503 19.9101C0.769076 18.1077 0.489678 15.9853 0.489678 13.9967C0.489678 11.3891 1.18173 8.9271 2.55348 6.93291ZM14.7254 12.3028L14.7254 12.3028L14.724 12.303C13.9838 12.4458 13.2429 12.5019 12.4811 12.5019C11.7243 12.5019 10.9834 12.4458 10.2381 12.303L10.237 12.3028C10.0544 12.2711 9.87208 12.2373 9.68971 12.2036C8.94295 12.0653 8.19541 11.9269 7.42609 11.9269C6.23082 11.9269 5.29372 12.5458 4.65803 13.5077C4.02335 14.4681 3.6875 15.7717 3.6875 17.1528C3.6875 19.9147 4.70084 21.5198 6.16501 22.4301C7.62329 23.3368 9.51847 23.5475 11.2711 23.5475H13.6811C15.4411 23.5475 17.3388 23.3383 18.7978 22.4325C20.2626 21.5229 21.2747 19.9177 21.2747 17.1528C21.2747 15.7717 20.9388 14.4681 20.3041 13.5077C19.6684 12.5458 18.7313 11.9269 17.5361 11.9269C16.7827 11.9269 16.0534 12.061 15.3136 12.1971C15.1185 12.233 14.9226 12.269 14.7254 12.3028ZM9.6675 17.1528C9.6675 17.799 9.53239 18.6512 9.23884 19.3395C8.94344 20.0322 8.50021 20.5329 7.89609 20.5329C7.29196 20.5329 6.84873 20.0322 6.55333 19.3395C6.25978 18.6512 6.12468 17.799 6.12468 17.1528C6.12468 16.5066 6.25978 15.6545 6.55333 14.9661C6.84873 14.2734 7.29196 13.7728 7.89609 13.7728C8.50021 13.7728 8.94344 14.2734 9.23884 14.9661C9.53239 15.6545 9.6675 16.5066 9.6675 17.1528ZM15.3097 17.1528C15.3097 16.5066 15.4448 15.6545 15.7383 14.9661C16.0337 14.2734 16.477 13.7728 17.0811 13.7728C17.6852 13.7728 18.1284 14.2734 18.4238 14.9661C18.7174 15.6545 18.8525 16.5066 18.8525 17.1528C18.8525 17.799 18.7174 18.6512 18.4238 19.3395C18.1284 20.0322 17.6852 20.5329 17.0811 20.5329C16.477 20.5329 16.0337 20.0322 15.7383 19.3395C15.4448 18.6512 15.3097 17.799 15.3097 17.1528Z" fill="#A9F7ED" stroke="#A9F7ED" stroke-width="0.127182"/>
</svg>
