<svg width="83" height="48" viewBox="0 0 83 48" fill="none" xmlns="http://www.w3.org/2000/svg">
<path d="M2.912 21.56C3.95733 21.5173 4.72533 21.2933 5.216 20.888C5.70667 20.4613 5.952 19.864 5.952 19.096C5.952 18.52 5.84533 17.3787 5.632 15.672C5.61067 15.5013 5.54667 14.9573 5.44 14.04C5.33333 13.1013 5.28 12.2587 5.28 11.512C5.28 9.69866 5.83467 8.29066 6.944 7.288C8.05333 6.264 9.536 5.752 11.392 5.752H13.696V10.232H12.448C11.7653 10.232 11.2747 10.3813 10.976 10.68C10.6773 10.9787 10.528 11.4373 10.528 12.056C10.528 12.5253 10.6133 13.592 10.784 15.256C10.976 17.3253 11.072 18.68 11.072 19.32C11.072 20.4933 10.784 21.464 10.208 22.232C9.65333 23 8.8 23.4907 7.648 23.704V23.768C8.8 24.0027 9.65333 24.504 10.208 25.272C10.784 26.0187 11.072 26.9893 11.072 28.184C11.072 28.824 10.976 30.1787 10.784 32.248C10.6133 33.8693 10.528 34.9253 10.528 35.416C10.528 36.0347 10.6773 36.4933 10.976 36.792C11.2747 37.112 11.7653 37.272 12.448 37.272H13.696V41.752H11.392C9.536 41.752 8.05333 41.24 6.944 40.216C5.83467 39.2133 5.28 37.7947 5.28 35.96C5.28 35.2133 5.33333 34.3813 5.44 33.464C5.54667 32.5253 5.61067 31.9707 5.632 31.8C5.84533 30.0933 5.952 28.952 5.952 28.376C5.952 27.6507 5.70667 27.0747 5.216 26.648C4.72533 26.2 3.95733 25.9547 2.912 25.912V21.56ZM79.6185 25.912C78.5732 25.9547 77.8052 26.2 77.3145 26.648C76.8238 27.0747 76.5785 27.6507 76.5785 28.376C76.5785 28.952 76.6852 30.0933 76.8985 31.8C76.9198 31.9707 76.9838 32.5253 77.0905 33.464C77.1972 34.3813 77.2505 35.2133 77.2505 35.96C77.2505 37.7947 76.6958 39.2133 75.5865 40.216C74.4772 41.24 72.9945 41.752 71.1385 41.752H68.8345V37.272H70.0825C70.7652 37.272 71.2558 37.112 71.5545 36.792C71.8532 36.4933 72.0025 36.0347 72.0025 35.416C72.0025 34.9253 71.9172 33.8693 71.7465 32.248C71.5545 30.1787 71.4585 28.824 71.4585 28.184C71.4585 26.9893 71.7358 26.0187 72.2905 25.272C72.8665 24.504 73.7305 24.0027 74.8825 23.768V23.704C73.7305 23.4907 72.8665 23 72.2905 22.232C71.7358 21.464 71.4585 20.4933 71.4585 19.32C71.4585 18.68 71.5545 17.3253 71.7465 15.256C71.9172 13.592 72.0025 12.5253 72.0025 12.056C72.0025 11.4373 71.8532 10.9787 71.5545 10.68C71.2558 10.3813 70.7652 10.232 70.0825 10.232H68.8345V5.752H71.1385C72.9945 5.752 74.4772 6.264 75.5865 7.288C76.6958 8.29066 77.2505 9.69866 77.2505 11.512C77.2505 12.2587 77.1972 13.1013 77.0905 14.04C76.9838 14.9573 76.9198 15.5013 76.8985 15.672C76.6852 17.3787 76.5785 18.52 76.5785 19.096C76.5785 19.864 76.8238 20.4613 77.3145 20.888C77.8052 21.2933 78.5732 21.5173 79.6185 21.56V25.912Z" fill="#682AE9"/>
<path d="M34.4624 35L29.5344 26.296H27.4224V35H22.9424V12.664H31.3264C33.0544 12.664 34.5264 12.9733 35.7424 13.592C36.9584 14.1893 37.865 15.0107 38.4624 16.056C39.081 17.08 39.3904 18.232 39.3904 19.512C39.3904 20.984 38.9637 22.3173 38.1104 23.512C37.257 24.6853 35.9877 25.496 34.3024 25.944L39.6464 35H34.4624ZM27.4224 22.936H31.1664C32.3824 22.936 33.289 22.648 33.8864 22.072C34.4837 21.4747 34.7824 20.6533 34.7824 19.608C34.7824 18.584 34.4837 17.7947 33.8864 17.24C33.289 16.664 32.3824 16.376 31.1664 16.376H27.4224V22.936ZM56.1144 23.544C57.373 23.7787 58.4077 24.408 59.2184 25.432C60.029 26.456 60.4344 27.6293 60.4344 28.952C60.4344 30.1467 60.1357 31.2027 59.5384 32.12C58.9624 33.016 58.1197 33.72 57.0104 34.232C55.901 34.744 54.589 35 53.0744 35H43.4424V12.664H52.6584C54.173 12.664 55.4744 12.9093 56.5624 13.4C57.6717 13.8907 58.5037 14.5733 59.0584 15.448C59.6344 16.3227 59.9224 17.3147 59.9224 18.424C59.9224 19.7253 59.5704 20.8133 58.8664 21.688C58.1837 22.5627 57.2664 23.1813 56.1144 23.544ZM47.9224 21.88H52.0184C53.085 21.88 53.9064 21.6453 54.4824 21.176C55.0584 20.6853 55.3464 19.992 55.3464 19.096C55.3464 18.2 55.0584 17.5067 54.4824 17.016C53.9064 16.5253 53.085 16.28 52.0184 16.28H47.9224V21.88ZM52.4344 31.352C53.5224 31.352 54.365 31.096 54.9624 30.584C55.581 30.072 55.8904 29.3467 55.8904 28.408C55.8904 27.448 55.5704 26.7013 54.9304 26.168C54.2904 25.6133 53.4264 25.336 52.3384 25.336H47.9224V31.352H52.4344Z" fill="white"/>
</svg>
