<svg width="24" height="24" viewBox="0 0 24 24" fill="none" xmlns="http://www.w3.org/2000/svg">
<path d="M11.9977 7.99519C11.2064 7.99548 10.433 8.23046 9.77515 8.67041C9.11733 9.11035 8.60471 9.73551 8.30209 10.4668C7.99947 11.1982 7.92044 12.0028 8.075 12.7791C8.22957 13.5553 8.61077 14.2683 9.17043 14.8279C9.73008 15.3874 10.443 15.7685 11.2192 15.9228C11.9953 16.0771 12.7998 15.9977 13.5308 15.6948C14.2619 15.3918 14.8867 14.8788 15.3263 14.2207C15.7659 13.5626 16.0006 12.7889 16.0006 11.9974C15.9998 10.9359 15.5777 9.91817 14.8272 9.16775C14.0767 8.41732 13.059 7.99558 11.9977 7.99519ZM21.3529 4.91889C21.1492 4.40255 20.8416 3.93359 20.4492 3.54109C20.0568 3.14858 19.5879 2.84092 19.0717 2.63718C17.4964 2.01516 13.7456 2.15472 11.9977 2.15472C10.2499 2.15472 6.50288 2.00991 4.92306 2.63718C4.40684 2.84092 3.93798 3.14858 3.54556 3.54109C3.15315 3.93359 2.84555 4.40255 2.64185 4.91889C2.02072 6.49455 2.1595 10.2499 2.1595 11.9966C2.1595 13.7434 2.02072 17.4942 2.64485 19.0751C2.84855 19.5914 3.15615 20.0604 3.54856 20.4529C3.94098 20.8454 4.40984 21.1531 4.92606 21.3568C6.50138 21.9788 10.2521 21.8393 12.0007 21.8393C13.7494 21.8393 17.4949 21.9841 19.0747 21.3568C19.5909 21.1531 20.0598 20.8454 20.4522 20.4529C20.8446 20.0604 21.1522 19.5914 21.3559 19.0751C21.9823 17.4994 21.8382 13.7441 21.8382 11.9974C21.8382 10.2506 21.9823 6.50055 21.3559 4.91964L21.3529 4.91889ZM11.9977 18.15C10.7811 18.15 9.59187 17.7891 8.5803 17.1131C7.56873 16.437 6.78031 15.4761 6.31474 14.3519C5.84916 13.2276 5.72735 11.9905 5.96469 10.7971C6.20204 9.60358 6.78789 8.50729 7.64816 7.64683C8.50843 6.78638 9.60448 6.2004 10.7977 5.963C11.9909 5.7256 13.2277 5.84744 14.3517 6.31312C15.4757 6.77879 16.4364 7.56739 17.1123 8.57917C17.7882 9.59096 18.149 10.7805 18.149 11.9974C18.15 12.8056 17.9916 13.6061 17.6828 14.353C17.374 15.0999 16.9209 15.7786 16.3495 16.3501C15.7781 16.9216 15.0996 17.3748 14.3529 17.6836C13.6061 17.9925 12.8058 18.151 11.9977 18.15ZM18.4025 7.02278C18.1185 7.02292 17.8409 6.93882 17.6047 6.78111C17.3684 6.6234 17.1843 6.39916 17.0755 6.13676C16.9667 5.87436 16.9382 5.58559 16.9935 5.30696C17.0488 5.02833 17.1855 4.77237 17.3863 4.57145C17.587 4.37054 17.8429 4.23369 18.1214 4.17821C18.4 4.12274 18.6887 4.15114 18.9511 4.25981C19.2135 4.36848 19.4378 4.55255 19.5956 4.78873C19.7534 5.02492 19.8376 5.3026 19.8376 5.58667C19.8384 5.77531 19.8019 5.96225 19.7303 6.13676C19.6587 6.31128 19.5534 6.46994 19.4203 6.60364C19.2873 6.73735 19.1292 6.84346 18.955 6.9159C18.7809 6.98834 18.5941 7.02568 18.4055 7.02578L18.4025 7.02278ZM23.9162 16.9495C23.8194 18.8725 23.3806 20.5765 21.977 21.9766C20.5735 23.3767 18.8714 23.8246 16.951 23.9162C14.9699 24.0279 9.03015 24.0279 7.04899 23.9162C5.12635 23.8194 3.42876 23.3797 2.02297 21.9766C0.617188 20.5735 0.175348 18.8688 0.0838295 16.9495C-0.0279432 14.9671 -0.0279432 9.02537 0.0838295 7.04529C0.180599 5.12222 0.614187 3.41825 2.02297 2.01816C3.43176 0.618073 5.13385 0.175386 7.04899 0.0838479C9.03015 -0.0279493 14.9699 -0.0279493 16.951 0.0838479C18.8736 0.180639 20.5765 0.620324 21.977 2.02342C23.3776 3.42651 23.8247 5.13123 23.9162 7.05429C24.0279 9.02912 24.0279 14.9656 23.9162 16.9495Z" fill="#A9F7ED"/>
</svg>
