<svg width="25" height="25" viewBox="0 0 25 25" fill="none" xmlns="http://www.w3.org/2000/svg">
<path d="M4.05892 20.6143V20.6779H4.12251H7.67966H7.68502H7.74861V20.6143V9.16076V9.09717H7.68502H4.12251H4.05892V9.16076V20.6143ZM17.3929 20.6143V20.6779H17.4564H21.0136V20.6143H21.0772V14.3358C21.0772 12.7915 20.9103 11.4107 20.2826 10.4152C19.6506 9.4131 18.5597 8.81324 16.7439 8.81324C15.0696 8.81324 13.9154 9.68905 13.3897 10.5683V9.16076V9.09717H13.3261H9.91359H9.85V9.16076V20.6143V20.6779H9.91359H13.4707H13.5343V20.6143V14.9465C13.5343 14.2003 13.6058 13.4794 13.9001 12.9462C14.0464 12.6811 14.2475 12.4629 14.5231 12.3104C14.7989 12.1578 15.1531 12.069 15.6082 12.069C16.0534 12.069 16.3831 12.1733 16.629 12.3453C16.875 12.5174 17.0424 12.7611 17.1562 13.0493C17.3853 13.6293 17.3929 14.3759 17.3929 15.0429V20.6143ZM2.13502 0.106499H22.7118C23.619 0.106499 24.3625 0.854298 24.3625 1.77327V22.3126C24.3625 23.2315 23.619 23.9793 22.7118 23.9793H2.13502C1.22805 23.9793 0.489678 23.2318 0.489678 22.3126V1.77327C0.489678 0.854038 1.22805 0.106499 2.13502 0.106499ZM3.775 5.53398C3.775 6.70471 4.72479 7.66007 5.90109 7.66007C7.07728 7.66007 8.02718 6.71017 8.02718 5.53398C8.02718 4.36314 7.07192 3.40789 5.90109 3.40789C4.72479 3.40789 3.775 4.36325 3.775 5.53398Z" fill="#A9F7ED" stroke="#A9F7ED" stroke-width="0.127182"/>
</svg>
